<svg width="32" height="32" viewBox="0 0 32 32" fill="none" xmlns="http://www.w3.org/2000/svg">
<mask id="mask0_61_11665" style="mask-type:alpha" maskUnits="userSpaceOnUse" x="0" y="0" width="32" height="32">
<rect width="32" height="32" fill="#D9D9D9"/>
</mask>
<g mask="url(#mask0_61_11665)">
<path d="M14.515 20.125L19.8775 16.6875C20.1342 16.5225 20.2625 16.2933 20.2625 16C20.2625 15.7067 20.1342 15.4775 19.8775 15.3125L14.515 11.875C14.24 11.6917 13.9604 11.6779 13.6763 11.8338C13.3921 11.9896 13.25 12.2325 13.25 12.5625V19.4375C13.25 19.7675 13.3921 20.0104 13.6763 20.1663C13.9604 20.3221 14.24 20.3083 14.515 20.125ZM16 27C14.4783 27 13.0483 26.7113 11.71 26.1338C10.3717 25.5563 9.2075 24.7725 8.2175 23.7825C7.2275 22.7925 6.44375 21.6283 5.86625 20.29C5.28875 18.9517 5 17.5217 5 16C5 14.4783 5.28875 13.0483 5.86625 11.71C6.44375 10.3717 7.2275 9.2075 8.2175 8.2175C9.2075 7.2275 10.3717 6.44375 11.71 5.86625C13.0483 5.28875 14.4783 5 16 5C17.5217 5 18.9517 5.28875 20.29 5.86625C21.6283 6.44375 22.7925 7.2275 23.7825 8.2175C24.7725 9.2075 25.5563 10.3717 26.1338 11.71C26.7113 13.0483 27 14.4783 27 16C27 17.5217 26.7113 18.9517 26.1338 20.29C25.5563 21.6283 24.7725 22.7925 23.7825 23.7825C22.7925 24.7725 21.6283 25.5563 20.29 26.1338C18.9517 26.7113 17.5217 27 16 27Z" fill="#0E4B9E"/>
</g>
</svg>
