<svg width="24" height="24" viewBox="0 0 24 24" fill="none" xmlns="http://www.w3.org/2000/svg">
<mask id="mask0_84_15981" style="mask-type:alpha" maskUnits="userSpaceOnUse" x="0" y="0" width="24" height="24">
<rect width="24" height="24" fill="#D9D9D9"/>
</mask>
<g mask="url(#mask0_84_15981)">
<path d="M12 15C11.8827 15 11.7599 14.9775 11.6314 14.9324C11.5019 14.8873 11.3786 14.8084 11.2613 14.6957L5.17588 8.84541C5.05863 8.73269 5 8.61997 5 8.50725C5 8.39452 5.05863 8.2818 5.17588 8.16908C5.29313 8.05636 5.41039 8 5.52764 8C5.64489 8 5.76214 8.05636 5.8794 8.16908L12 14.0531L18.1206 8.16908C18.2379 8.05636 18.3551 8 18.4724 8C18.5896 8 18.7069 8.05636 18.8241 8.16908C18.9414 8.2818 19 8.39452 19 8.50725C19 8.61997 18.9414 8.73269 18.8241 8.84541L12.7387 14.6957C12.6214 14.8084 12.5042 14.8873 12.3869 14.9324C12.2697 14.9775 12.1407 15 12 15Z" fill="#111111"/>
</g>
</svg>
