<svg width="24" height="25" viewBox="0 0 24 25" fill="none" xmlns="http://www.w3.org/2000/svg">
<mask id="mask0_298_6083" style="mask-type:alpha" maskUnits="userSpaceOnUse" x="0" y="0" width="24" height="25">
<rect y="0.5" width="24" height="24" fill="#D9D9D9"/>
</mask>
<g mask="url(#mask0_298_6083)">
<path d="M12 20.5C10.8889 20.5 9.8483 20.289 8.87822 19.8671C7.90756 19.4446 7.06311 18.8739 6.34489 18.1551C5.62607 17.4369 5.05541 16.5924 4.63289 15.6218C4.21096 14.6517 4 13.6111 4 12.5C4 11.3889 4.21096 10.348 4.63289 9.37733C5.05541 8.40726 5.62607 7.56281 6.34489 6.844C7.06311 6.12578 7.90756 5.55541 8.87822 5.13289C9.8483 4.71096 10.8889 4.5 12 4.5C13.1111 4.5 14.152 4.71096 15.1227 5.13289C16.0927 5.55541 16.9372 6.12578 17.656 6.844C18.3742 7.56281 18.9446 8.40726 19.3671 9.37733C19.789 10.348 20 11.3889 20 12.5C20 13.6111 19.789 14.6517 19.3671 15.6218C18.9446 16.5924 18.3742 17.4369 17.656 18.1551C16.9372 18.8739 16.0927 19.4446 15.1227 19.8671C14.152 20.289 13.1111 20.5 12 20.5ZM12 19.6111C13.9852 19.6111 15.6667 18.9222 17.0444 17.5444C18.4222 16.1667 19.1111 14.4852 19.1111 12.5C19.1111 10.5148 18.4222 8.83333 17.0444 7.45556C15.6667 6.07778 13.9852 5.38889 12 5.38889C10.0148 5.38889 8.33333 6.07778 6.95556 7.45556C5.57778 8.83333 4.88889 10.5148 4.88889 12.5C4.88889 14.4852 5.57778 16.1667 6.95556 17.5444C8.33333 18.9222 10.0148 19.6111 12 19.6111Z" fill="#111111"/>
</g>
</svg>
