<svg width="24" height="24" viewBox="0 0 24 24" fill="none" xmlns="http://www.w3.org/2000/svg">
<mask id="mask0_322_172" style="mask-type:alpha" maskUnits="userSpaceOnUse" x="0" y="0" width="24" height="24">
<rect width="24" height="24" fill="#D9D9D9"/>
</mask>
<g mask="url(#mask0_322_172)">
<path d="M12.0008 15.679L8.36118 12.0394L9.08915 11.2996L11.4865 13.6969V4.7998H12.5151V13.6969L14.9124 11.2996L15.6404 12.0394L12.0008 15.679ZM6.46244 19.1998C5.98895 19.1998 5.59364 19.0412 5.2765 18.7241C4.95935 18.4069 4.80078 18.0116 4.80078 17.5381V15.0459H5.82935V17.5381C5.82935 17.6965 5.89527 17.8417 6.0271 17.9735C6.15892 18.1053 6.30404 18.1712 6.46244 18.1712H17.5391C17.6975 18.1712 17.8426 18.1053 17.9745 17.9735C18.1063 17.8417 18.1722 17.6965 18.1722 17.5381V15.0459H19.2008V17.5381C19.2008 18.0116 19.0422 18.4069 18.7251 18.7241C18.4079 19.0412 18.0126 19.1998 17.5391 19.1998H6.46244Z" fill="#333333"/>
</g>
</svg>
