<svg width="24" height="24" viewBox="0 0 24 24" fill="none" xmlns="http://www.w3.org/2000/svg">
<mask id="mask0_370_2386" style="mask-type:alpha" maskUnits="userSpaceOnUse" x="0" y="0" width="24" height="24">
<rect width="24" height="24" fill="#D9D9D9"/>
</mask>
<g mask="url(#mask0_370_2386)">
<path d="M9.54976 15.8808L18.3518 7.07875C18.4491 6.98142 18.5638 6.9295 18.696 6.923C18.828 6.91667 18.9491 6.96859 19.0593 7.07875C19.1696 7.18909 19.2248 7.308 19.2248 7.4355C19.2248 7.56317 19.1696 7.68209 19.0593 7.79225L10.1153 16.7423C9.9536 16.9038 9.7651 16.9845 9.54976 16.9845C9.33443 16.9845 9.14593 16.9038 8.98426 16.7423L4.93426 12.6923C4.83693 12.5949 4.78601 12.4793 4.78151 12.3453C4.77701 12.2113 4.82993 12.0891 4.94026 11.9788C5.05043 11.8686 5.16926 11.8135 5.29676 11.8135C5.42443 11.8135 5.54335 11.8686 5.65351 11.9788L9.54976 15.8808Z" fill="#333333"/>
</g>
</svg>
