<svg width="209" height="20" viewBox="0 0 209 20" fill="none" xmlns="http://www.w3.org/2000/svg">
<path d="M19.7528 2.4589L17.0269 7.17265L17.9675 8.79345L22.565 0.833313H13.3652L14.3058 2.4589H19.7528Z" fill="#FFFFFD"/>
<path d="M19.7528 2.4589L17.0269 7.17265L17.9675 8.79345L22.565 0.833313H13.3652L14.3058 2.4589H19.7528Z" fill="#FFFFFD"/>
<path d="M11.4889 4.0797L19.7528 18.3744H14.3059L13.3653 20H22.5651L11.4889 0.833313L0.41748 20H11.4889L14.9634 13.9867L14.0276 12.3659L10.5531 18.3744H3.22972L11.4889 4.0797Z" fill="#FFFFFD"/>
<path d="M11.4889 12.2268C12.2734 12.2268 12.9094 11.5914 12.9094 10.8075C12.9094 10.0235 12.2734 9.38806 11.4889 9.38806C10.7043 9.38806 10.0684 10.0235 10.0684 10.8075C10.0684 11.5914 10.7043 12.2268 11.4889 12.2268Z" fill="#FFFFFD"/>
<path d="M68.1991 1.96021H66.3994V14.5382H68.1991V1.96021Z" fill="#FFFFFD"/>
<path d="M59.7433 2.42053C57.2622 2.42053 55.2466 4.42975 55.2466 6.91369C55.2466 9.39764 57.2622 11.4069 59.7433 11.4069C62.2244 11.4069 64.24 9.39764 64.24 6.91369C64.24 4.42975 62.2244 2.42053 59.7433 2.42053ZM59.7433 9.73331C58.3324 9.73331 57.1854 8.47215 57.1854 6.91369C57.1854 5.35523 58.3276 4.09407 59.7433 4.09407C61.159 4.09407 62.3012 5.35523 62.3012 6.91369C62.3012 8.47215 61.159 9.73331 59.7433 9.73331Z" fill="#FFFFFD"/>
<path d="M59.2923 16.7008V12.7448H57.4927V16.9406L58.3949 18.4943H68.5545V16.7008H59.2923Z" fill="#FFFFFD"/>
<path d="M22.4067 12.2173H24.5663L27.8009 6.64521L31.0402 12.2173H33.1998L27.8009 2.87134L22.4067 12.2173Z" fill="#FFFFFD"/>
<path d="M36.0789 1.96021H34.2793V18.8539H36.0789V1.96021Z" fill="#FFFFFD"/>
<path d="M84.4919 1.96021V6.99523H82.3324V1.96021H80.5327V18.8539H82.3324V8.79345H84.4919V18.8539H86.2916V1.96021H84.4919Z" fill="#FFFFFD"/>
<path d="M76.4009 6.22322V4.66476H79.1075V2.87134H71.8994V4.66476H74.606V6.22322L71.1411 12.2125H73.2191L75.5034 8.26121L77.7878 12.2125H79.8658L76.4009 6.22322Z" fill="#FFFFFD"/>
<path d="M50.8604 1.96021V6.99523H48.7344V1.96021H46.9396V10.4095H40.4609V4.65514H45.5094V2.8617H38.666V10.6492L39.5634 12.2077H46.9396V18.8539H48.7344V8.79345H50.8604V18.8539H52.66V1.96021H50.8604Z" fill="#FFFFFD"/>
<path d="M95.7026 3.14453H97.8622V15.5067H104.283V17.3721H95.7074V3.14453H95.7026Z" fill="#A7A19F"/>
<path d="M106.5 3.14453H115.412V5.00988H108.66V9.31603H114.942V11.1622H108.66V15.5067H115.489V17.3721H106.5V3.14453Z" fill="#A7A19F"/>
<path d="M118.062 3.14453H126.973V5.00988H120.221V9.31603H126.503V11.1622H120.221V15.5067H127.05V17.3721H118.062V3.14453Z" fill="#A7A19F"/>
<path d="M128.917 3.14453H139.931V5.00988H135.516V17.3721H133.356V5.00988H128.922V3.14453H128.917Z" fill="#A7A19F"/>
<path d="M157.101 16.9789H141.26V15.2238H157.101V16.9789ZM155.268 11.4403H142.992V3.07739H155.268V11.4403ZM145.094 9.75719H153.176V4.77492H145.094V9.75719ZM150.186 15.6506H148.084V11.0999H150.186V15.6506Z" fill="#A7A19F"/>
<path d="M164.233 13.6126C166.085 13.5407 167.842 13.3824 169.497 13.1475L169.661 14.7011C168.466 14.9265 167.223 15.0944 165.932 15.2046C164.641 15.3149 163.427 15.3869 162.294 15.4204C161.157 15.454 159.919 15.4684 158.57 15.4684L158.301 13.7229C160.403 13.7229 162.38 13.6845 164.238 13.6126H164.233ZM166.292 3.45146C167.016 3.8111 167.583 4.30981 167.995 4.94758C168.403 5.58535 168.61 6.30944 168.61 7.11504C168.61 7.92065 168.403 8.65432 167.995 9.2873C167.587 9.92507 167.016 10.4238 166.292 10.7786C165.567 11.1383 164.751 11.3157 163.854 11.3157C162.956 11.3157 162.141 11.1383 161.411 10.7786C160.686 10.419 160.115 9.92027 159.703 9.2873C159.29 8.64953 159.084 7.92544 159.084 7.11504C159.084 6.30464 159.29 5.58535 159.703 4.94758C160.115 4.30981 160.682 3.80631 161.411 3.45146C162.136 3.09181 162.952 2.91439 163.854 2.91439C164.756 2.91439 165.567 3.09181 166.292 3.45146ZM162.491 5.05787C162.088 5.24489 161.771 5.51821 161.541 5.87786C161.31 6.2375 161.195 6.6499 161.195 7.11504C161.195 7.58018 161.31 8.00216 161.541 8.35222C161.771 8.70227 162.088 8.97561 162.491 9.16742C162.894 9.35923 163.35 9.45992 163.854 9.46472C164.367 9.45992 164.823 9.35923 165.231 9.16742C165.639 8.97561 165.956 8.70227 166.181 8.35222C166.407 8.00216 166.522 7.58978 166.522 7.11504C166.522 6.64031 166.407 6.2375 166.181 5.87786C165.956 5.51821 165.639 5.24489 165.231 5.05787C164.823 4.87086 164.367 4.77015 163.854 4.76535C163.35 4.77015 162.894 4.87086 162.491 5.05787ZM172.655 19.108H170.544V1.72516H172.655V19.108Z" fill="#A7A19F"/>
<path d="M190.988 16.835H175.204V15.0992H190.988V16.835ZM187.988 5.02431H176.835V3.30762H187.988V5.02431ZM183.136 15.9911H181.034V9.05233H183.136V15.9911ZM189.337 5.18735C189.332 6.61634 189.289 7.91586 189.212 9.0907C189.135 10.2655 188.953 11.6274 188.665 13.1858L186.505 12.9557C186.712 11.9247 186.86 10.9513 186.961 10.0306C187.062 9.10988 187.124 8.30428 187.148 7.60897C187.172 6.90886 187.187 6.07448 187.187 5.10104V3.30762H189.337V5.18735Z" fill="#A7A19F"/>
<path d="M197.399 9.86754C197.025 11.1239 196.478 12.246 195.748 13.2242C195.019 14.2025 194.16 14.9505 193.157 15.4588L191.832 13.7325C192.739 13.3057 193.526 12.6776 194.188 11.8576C194.851 11.0376 195.355 10.1073 195.705 9.07633C196.055 8.04535 196.233 6.98558 196.238 5.88747V3.11102H197.975V5.88747C197.97 7.28289 197.778 8.61119 197.404 9.86754H197.399ZM198.853 8.95165C199.189 9.93468 199.674 10.8218 200.312 11.6082C200.95 12.3946 201.699 12.9989 202.572 13.4208L201.286 15.1183C200.307 14.6244 199.472 13.91 198.771 12.9701C198.076 12.0302 197.548 10.9513 197.183 9.73808C196.823 8.52488 196.645 7.23974 196.65 5.88268V3.10622H198.349V5.88268C198.349 6.93764 198.517 7.95902 198.853 8.94685V8.95165ZM205.744 19.0601H203.614V1.7204H205.744V19.0601ZM208.418 10.3423H205.265V8.52966H208.418V10.3423Z" fill="#A7A19F"/>
</svg>
